<svg viewBox="0 0 1120 1120" xmlns="http://www.w3.org/2000/svg" role="img" font-family="'Klammer Serif', 'Charis SIL', Charis, Georgia, serif"><title>samāsa-cakra</title><desc>The wheel of Sanskrit compounds: four classes, their families and leaf subtypes, from the Leitan-crosswalked taxonomy with the MG structural rulings.</desc><style>:root { --surface:#fcfcfb; --ink:#20201d; --ink2:#5d5c55; --line:#ddd8cc; }

.seg { stroke: var(--surface); stroke-width: 2; cursor: pointer; }
.ring1 { fill-opacity: .50; } .ring2 { fill-opacity: .30; } .ring3 { fill-opacity: .16; }
.c-tatpurusa { fill: #2a78d6; } .c-bahuvrihi { fill: #1baf7a; }
.c-dvandva { fill: #eda100; } .c-avyayibhava { fill: #008300; }
.hub { fill: var(--surface); stroke: var(--line); stroke-width: 1.4; }
.lbl { fill: var(--ink); pointer-events: none; }
.lbl2r, .lbl3 { fill: var(--ink2); }
.hublbl2 { fill: var(--ink2); }
.seg:hover { fill-opacity: .72; }
</style><rect width="100%" height="100%" fill="#fcfcfb"/><g id="wheel"><path d="M560.00 374.00 A186 186 0 0 1 638.10 728.81 L602.83 652.57 A102 102 0 0 0 560.00 458.00 Z" class="seg c-tatpurusa ring1" data-id="tatpurusa"/><text x="700.6" y="529.0" font-size="30" class="lbl lbl1" text-anchor="middle" dominant-baseline="middle" transform="rotate(77.6 700.6 529.0)">tatpuruṣa</text><path d="M560.00 272.00 A288 288 0 0 1 734.29 330.73 L676.19 407.15 A192 192 0 0 0 560.00 368.00 Z" class="seg c-tatpurusa ring2" data-id="tatpurusa--vibhakti"/><text x="636.6" y="332.6" font-size="19" class="lbl lbl2" text-anchor="middle" dominant-baseline="middle" transform="rotate(18.6 636.6 332.6)">vibhakti-tatpuruṣa</text><path d="M560.00 112.00 A448 448 0 0 1 608.44 114.63 L591.79 267.72 A294 294 0 0 0 560.00 266.00 Z" class="seg c-tatpurusa ring3" data-id="tatpurusa--vibhakti--dvitiya"/><text x="576.3" y="258.4" font-size="14.5" class="lbl lbl3" text-anchor="start" dominant-baseline="middle" transform="rotate(-86.9 576.3 258.4)">dvitīyā</text><path d="M608.44 114.63 A448 448 0 0 1 656.31 122.47 L623.20 272.87 A294 294 0 0 0 591.79 267.72 Z" class="seg c-tatpurusa ring3" data-id="tatpurusa--vibhakti--trtiya"/><text x="608.9" y="262.0" font-size="14.5" class="lbl lbl3" text-anchor="start" dominant-baseline="middle" transform="rotate(-80.7 608.9 262.0)">tṛtīyā</text><path d="M656.31 122.47 A448 448 0 0 1 703.05 135.45 L653.87 281.39 A294 294 0 0 0 623.20 272.87 Z" class="seg c-tatpurusa ring3" data-id="tatpurusa--vibhakti--caturthi"/><text x="640.8" y="269.0" font-size="14.5" class="lbl lbl3" text-anchor="start" dominant-baseline="middle" transform="rotate(-74.5 640.8 269.0)">caturthī</text><path d="M703.05 135.45 A448 448 0 0 1 748.11 153.41 L683.45 293.17 A294 294 0 0 0 653.87 281.39 Z" class="seg c-tatpurusa ring3" data-id="tatpurusa--vibhakti--pancami"/><text x="671.8" y="279.4" font-size="14.5" class="lbl lbl3" text-anchor="start" dominant-baseline="middle" transform="rotate(-68.3 671.8 279.4)">pañcamī</text><path d="M748.11 153.41 A448 448 0 0 1 790.97 176.13 L711.57 308.08 A294 294 0 0 0 683.45 293.17 Z" class="seg c-tatpurusa ring3" data-id="tatpurusa--vibhakti--sasthi"/><text x="701.5" y="293.2" font-size="14.5" class="lbl lbl3" text-anchor="start" dominant-baseline="middle" transform="rotate(-62.1 701.5 293.2)">ṣaṣṭhī</text><path d="M790.97 176.13 A448 448 0 0 1 831.12 203.35 L737.92 325.95 A294 294 0 0 0 711.57 308.08 Z" class="seg c-tatpurusa ring3" data-id="tatpurusa--vibhakti--saptami"/><text x="729.5" y="310.0" font-size="14.5" class="lbl lbl3" text-anchor="start" dominant-baseline="middle" transform="rotate(-55.9 729.5 310.0)">saptamī</text><path d="M734.29 330.73 A288 288 0 0 1 847.58 544.41 L751.72 549.61 A192 192 0 0 0 676.19 407.15 Z" class="seg c-tatpurusa ring2" data-id="tatpurusa--tp-special"/><text x="772.0" y="447.6" font-size="19" class="lbl lbl2" text-anchor="middle" dominant-baseline="middle" transform="rotate(62.1 772.0 447.6)">особые татпуруши</text><path d="M831.12 203.35 A448 448 0 0 1 868.09 234.75 L762.18 346.56 A294 294 0 0 0 737.92 325.95 Z" class="seg c-tatpurusa ring3" data-id="tatpurusa--tp-special--nan-tp"/><text x="755.5" y="329.8" font-size="14.5" class="lbl lbl3" text-anchor="start" dominant-baseline="middle" transform="rotate(-49.7 755.5 329.8)">nañ-</text><path d="M868.09 234.75 A448 448 0 0 1 901.45 269.97 L784.08 369.67 A294 294 0 0 0 762.18 346.56 Z" class="seg c-tatpurusa ring3" data-id="tatpurusa--tp-special--pradi-tp"/><text x="779.3" y="352.3" font-size="14.5" class="lbl lbl3" text-anchor="start" dominant-baseline="middle" transform="rotate(-43.4 779.3 352.3)">prādi-</text><path d="M901.45 269.97 A448 448 0 0 1 930.80 308.59 L803.34 395.01 A294 294 0 0 0 784.08 369.67 Z" class="seg c-tatpurusa ring3" data-id="tatpurusa--tp-special--gati"/><text x="800.4" y="377.2" font-size="14.5" class="lbl lbl3" text-anchor="start" dominant-baseline="middle" transform="rotate(-37.2 800.4 377.2)">gati-</text><path d="M930.80 308.59 A448 448 0 0 1 955.81 350.15 L819.75 422.29 A294 294 0 0 0 803.34 395.01 Z" class="seg c-tatpurusa ring3" data-id="tatpurusa--tp-special--upapada"/><text x="818.8" y="404.3" font-size="14.5" class="lbl lbl3" text-anchor="start" dominant-baseline="middle" transform="rotate(-31.0 818.8 404.3)">upapada-</text><path d="M955.81 350.15 A448 448 0 0 1 976.18 394.18 L833.12 451.18 A294 294 0 0 0 819.75 422.29 Z" class="seg c-tatpurusa ring3" data-id="tatpurusa--tp-special--aluk"/><text x="834.1" y="433.2" font-size="14.5" class="lbl lbl3" text-anchor="start" dominant-baseline="middle" transform="rotate(-24.8 834.1 433.2)">aluk-</text><path d="M976.18 394.18 A448 448 0 0 1 991.67 440.15 L843.28 481.35 A294 294 0 0 0 833.12 451.18 Z" class="seg c-tatpurusa ring3" data-id="tatpurusa--tp-special--madhyamapadalopin"/><text x="846.2" y="463.6" font-size="14.5" class="lbl lbl3" text-anchor="start" dominant-baseline="middle" transform="rotate(-18.6 846.2 463.6)">madhyamapadalopin</text><path d="M991.67 440.15 A448 448 0 0 1 1002.10 487.52 L850.13 512.44 A294 294 0 0 0 843.28 481.35 Z" class="seg c-tatpurusa ring3" data-id="tatpurusa--tp-special--ekadesin"/><text x="854.9" y="495.1" font-size="14.5" class="lbl lbl3" text-anchor="start" dominant-baseline="middle" transform="rotate(-12.4 854.9 495.1)">ekadeśin</text><path d="M1002.10 487.52 A448 448 0 0 1 1007.34 535.75 L853.57 544.08 A294 294 0 0 0 850.13 512.44 Z" class="seg c-tatpurusa ring3" data-id="tatpurusa--tp-special--mayura"/><text x="860.2" y="527.3" font-size="14.5" class="lbl lbl3" text-anchor="start" dominant-baseline="middle" transform="rotate(-6.2 860.2 527.3)">X-antara-</text><path d="M847.58 544.41 A288 288 0 0 1 758.06 769.09 L692.04 699.39 A192 192 0 0 0 751.72 549.61 Z" class="seg c-tatpurusa ring2" data-id="tatpurusa--karmadharaya"/><text x="783.0" y="648.8" font-size="19" class="lbl lbl2" text-anchor="middle" dominant-baseline="middle" transform="rotate(291.7 783.0 648.8)">karmadhāraya</text><path d="M1007.34 535.75 A448 448 0 0 1 1007.34 584.25 L853.57 575.92 A294 294 0 0 0 853.57 544.08 Z" class="seg c-tatpurusa ring3" data-id="tatpurusa--karmadharaya--visesanapurvapada"/><text x="862.0" y="560.0" font-size="14.5" class="lbl lbl3" text-anchor="start" dominant-baseline="middle" transform="rotate(0.0 862.0 560.0)">viśeṣaṇa-pūrvapada</text><path d="M1007.34 584.25 A448 448 0 0 1 1002.10 632.48 L850.13 607.56 A294 294 0 0 0 853.57 575.92 Z" class="seg c-tatpurusa ring3" data-id="tatpurusa--karmadharaya--appositional"/><text x="860.2" y="592.7" font-size="14.5" class="lbl lbl3" text-anchor="start" dominant-baseline="middle" transform="rotate(6.2 860.2 592.7)">аппозиционная</text><path d="M1002.10 632.48 A448 448 0 0 1 991.67 679.85 L843.28 638.65 A294 294 0 0 0 850.13 607.56 Z" class="seg c-tatpurusa ring3" data-id="tatpurusa--karmadharaya--visesyapurvapada"/><text x="854.9" y="624.9" font-size="14.5" class="lbl lbl3" text-anchor="start" dominant-baseline="middle" transform="rotate(12.4 854.9 624.9)">viśeṣya-pūrvapada</text><path d="M991.67 679.85 A448 448 0 0 1 976.18 725.82 L833.12 668.82 A294 294 0 0 0 843.28 638.65 Z" class="seg c-tatpurusa ring3" data-id="tatpurusa--karmadharaya--ubhayapada"/><text x="846.2" y="656.4" font-size="14.5" class="lbl lbl3" text-anchor="start" dominant-baseline="middle" transform="rotate(18.6 846.2 656.4)">viśeṣaṇobhayapada</text><path d="M976.18 725.82 A448 448 0 0 1 955.81 769.85 L819.75 697.71 A294 294 0 0 0 833.12 668.82 Z" class="seg c-tatpurusa ring3" data-id="tatpurusa--karmadharaya--upamanapurvapada"/><text x="834.1" y="686.8" font-size="14.5" class="lbl lbl3" text-anchor="start" dominant-baseline="middle" transform="rotate(24.8 834.1 686.8)">upamāna-pūrvapada</text><path d="M955.81 769.85 A448 448 0 0 1 930.80 811.41 L803.34 724.99 A294 294 0 0 0 819.75 697.71 Z" class="seg c-tatpurusa ring3" data-id="tatpurusa--karmadharaya--upamita"/><text x="818.8" y="715.7" font-size="14.5" class="lbl lbl3" text-anchor="start" dominant-baseline="middle" transform="rotate(31.0 818.8 715.7)">upamita</text><path d="M930.80 811.41 A448 448 0 0 1 901.45 850.03 L784.08 750.33 A294 294 0 0 0 803.34 724.99 Z" class="seg c-tatpurusa ring3" data-id="tatpurusa--karmadharaya--rupaka"/><text x="800.4" y="742.8" font-size="14.5" class="lbl lbl3" text-anchor="start" dominant-baseline="middle" transform="rotate(37.2 800.4 742.8)">rūpaka</text><path d="M901.45 850.03 A448 448 0 0 1 868.09 885.25 L762.18 773.44 A294 294 0 0 0 784.08 750.33 Z" class="seg c-tatpurusa ring3" data-id="tatpurusa--karmadharaya--sambhavana"/><text x="779.3" y="767.7" font-size="14.5" class="lbl lbl3" text-anchor="start" dominant-baseline="middle" transform="rotate(43.4 779.3 767.7)">sambhāvanā</text><path d="M758.06 769.09 A288 288 0 0 1 680.93 821.38 L640.62 734.25 A192 192 0 0 0 692.04 699.39 Z" class="seg c-tatpurusa ring2" data-id="tatpurusa--dvigu"/><text x="672.2" y="725.5" font-size="15" class="lbl lbl2r" text-anchor="start" dominant-baseline="middle" transform="rotate(55.9 672.2 725.5)">dvigu</text><path d="M868.09 885.25 A448 448 0 0 1 831.12 916.65 L737.92 794.05 A294 294 0 0 0 762.18 773.44 Z" class="seg c-tatpurusa ring3" data-id="tatpurusa--dvigu--taddhitarthe"/><text x="755.5" y="790.2" font-size="14.5" class="lbl lbl3" text-anchor="start" dominant-baseline="middle" transform="rotate(49.7 755.5 790.2)">taddhitārthe</text><path d="M831.12 916.65 A448 448 0 0 1 790.97 943.87 L711.57 811.92 A294 294 0 0 0 737.92 794.05 Z" class="seg c-tatpurusa ring3" data-id="tatpurusa--dvigu--uttarapade"/><text x="729.5" y="810.0" font-size="14.5" class="lbl lbl3" text-anchor="start" dominant-baseline="middle" transform="rotate(55.9 729.5 810.0)">uttarapade</text><path d="M790.97 943.87 A448 448 0 0 1 748.11 966.59 L683.45 826.83 A294 294 0 0 0 711.57 811.92 Z" class="seg c-tatpurusa ring3" data-id="tatpurusa--dvigu--samahare-dvigu"/><text x="701.5" y="826.8" font-size="14.5" class="lbl lbl3" text-anchor="start" dominant-baseline="middle" transform="rotate(62.1 701.5 826.8)">samāhāre</text><path d="M638.10 728.81 A186 186 0 0 1 376.45 529.91 L459.34 543.50 A102 102 0 0 0 602.83 652.57 Z" class="seg c-bahuvrihi ring1" data-id="bahuvrihi"/><text x="472.9" y="674.6" font-size="30" class="lbl lbl1" text-anchor="middle" dominant-baseline="middle" transform="rotate(397.2 472.9 674.6)">bahuvrīhi</text><path d="M680.93 821.38 A288 288 0 0 1 498.09 841.27 L518.73 747.51 A192 192 0 0 0 640.62 734.25 Z" class="seg c-bahuvrihi ring2" data-id="bahuvrihi--samanadhikarana"/><text x="585.9" y="798.6" font-size="19" class="lbl lbl2" text-anchor="middle" dominant-baseline="middle" transform="rotate(353.8 585.9 798.6)">samānādhikaraṇa</text><path d="M748.11 966.59 A448 448 0 0 1 703.05 984.55 L653.87 838.61 A294 294 0 0 0 683.45 826.83 Z" class="seg c-bahuvrihi ring3" data-id="bahuvrihi--samanadhikarana--dvitiyartha"/><text x="671.8" y="840.6" font-size="14.5" class="lbl lbl3" text-anchor="start" dominant-baseline="middle" transform="rotate(68.3 671.8 840.6)">dvitīyārtha</text><path d="M703.05 984.55 A448 448 0 0 1 656.31 997.53 L623.20 847.13 A294 294 0 0 0 653.87 838.61 Z" class="seg c-bahuvrihi ring3" data-id="bahuvrihi--samanadhikarana--trtiyartha"/><text x="640.8" y="851.0" font-size="14.5" class="lbl lbl3" text-anchor="start" dominant-baseline="middle" transform="rotate(74.5 640.8 851.0)">tṛtīyārtha</text><path d="M656.31 997.53 A448 448 0 0 1 608.44 1005.37 L591.79 852.28 A294 294 0 0 0 623.20 847.13 Z" class="seg c-bahuvrihi ring3" data-id="bahuvrihi--samanadhikarana--caturthyartha"/><text x="608.9" y="858.0" font-size="14.5" class="lbl lbl3" text-anchor="start" dominant-baseline="middle" transform="rotate(80.7 608.9 858.0)">caturthyartha</text><path d="M608.44 1005.37 A448 448 0 0 1 560.00 1008.00 L560.00 854.00 A294 294 0 0 0 591.79 852.28 Z" class="seg c-bahuvrihi ring3" data-id="bahuvrihi--samanadhikarana--pancamyartha"/><text x="576.3" y="861.6" font-size="14.5" class="lbl lbl3" text-anchor="start" dominant-baseline="middle" transform="rotate(86.9 576.3 861.6)">pañcamyartha</text><path d="M560.00 1008.00 A448 448 0 0 1 511.56 1005.37 L528.21 852.28 A294 294 0 0 0 560.00 854.00 Z" class="seg c-bahuvrihi ring3" data-id="bahuvrihi--samanadhikarana--sasthyartha"/><text x="543.7" y="861.6" font-size="14.5" class="lbl lbl3" text-anchor="end" dominant-baseline="middle" transform="rotate(273.1 543.7 861.6)">ṣaṣṭhyartha</text><path d="M511.56 1005.37 A448 448 0 0 1 463.69 997.53 L496.80 847.13 A294 294 0 0 0 528.21 852.28 Z" class="seg c-bahuvrihi ring3" data-id="bahuvrihi--samanadhikarana--saptamyartha"/><text x="511.1" y="858.0" font-size="14.5" class="lbl lbl3" text-anchor="end" dominant-baseline="middle" transform="rotate(279.3 511.1 858.0)">saptamyartha</text><path d="M498.09 841.27 A288 288 0 0 1 439.07 821.38 L479.38 734.25 A192 192 0 0 0 518.73 747.51 Z" class="seg c-bahuvrihi ring2" data-id="bahuvrihi--vyadhikarana"/><text x="496.1" y="749.5" font-size="15" class="lbl lbl2r" text-anchor="end" dominant-baseline="middle" transform="rotate(288.6 496.1 749.5)">vyadhikaraṇa</text><path d="M463.69 997.53 A448 448 0 0 1 416.95 984.55 L466.13 838.61 A294 294 0 0 0 496.80 847.13 Z" class="seg c-bahuvrihi ring3" data-id="bahuvrihi--vyadhikarana--loc-bv"/><text x="479.2" y="851.0" font-size="14.5" class="lbl lbl3" text-anchor="end" dominant-baseline="middle" transform="rotate(285.5 479.2 851.0)">локатив справа</text><path d="M416.95 984.55 A448 448 0 0 1 371.89 966.59 L436.55 826.83 A294 294 0 0 0 466.13 838.61 Z" class="seg c-bahuvrihi ring3" data-id="bahuvrihi--vyadhikarana--gen-bv"/><text x="448.2" y="840.6" font-size="14.5" class="lbl lbl3" text-anchor="end" dominant-baseline="middle" transform="rotate(291.7 448.2 840.6)">генетив слева</text><path d="M439.07 821.38 A288 288 0 0 1 275.79 513.41 L370.53 528.94 A192 192 0 0 0 479.38 734.25 Z" class="seg c-bahuvrihi ring2" data-id="bahuvrihi--bv-special"/><text x="348.0" y="672.4" font-size="19" class="lbl lbl2" text-anchor="middle" dominant-baseline="middle" transform="rotate(422.1 348.0 672.4)">особые бахуврихи</text><path d="M371.89 966.59 A448 448 0 0 1 329.03 943.87 L408.43 811.92 A294 294 0 0 0 436.55 826.83 Z" class="seg c-bahuvrihi ring3" data-id="bahuvrihi--bv-special--nan-bv"/><text x="418.5" y="826.8" font-size="14.5" class="lbl lbl3" text-anchor="end" dominant-baseline="middle" transform="rotate(297.9 418.5 826.8)">nañ-</text><path d="M329.03 943.87 A448 448 0 0 1 288.88 916.65 L382.08 794.05 A294 294 0 0 0 408.43 811.92 Z" class="seg c-bahuvrihi ring3" data-id="bahuvrihi--bv-special--pradi-bv"/><text x="390.5" y="810.0" font-size="14.5" class="lbl lbl3" text-anchor="end" dominant-baseline="middle" transform="rotate(304.1 390.5 810.0)">prādi-</text><path d="M288.88 916.65 A448 448 0 0 1 251.91 885.25 L357.82 773.44 A294 294 0 0 0 382.08 794.05 Z" class="seg c-bahuvrihi ring3" data-id="bahuvrihi--bv-special--saha"/><text x="364.5" y="790.2" font-size="14.5" class="lbl lbl3" text-anchor="end" dominant-baseline="middle" transform="rotate(310.3 364.5 790.2)">saha-</text><path d="M251.91 885.25 A448 448 0 0 1 218.55 850.03 L335.92 750.33 A294 294 0 0 0 357.82 773.44 Z" class="seg c-bahuvrihi ring3" data-id="bahuvrihi--bv-special--sankhya"/><text x="340.7" y="767.7" font-size="14.5" class="lbl lbl3" text-anchor="end" dominant-baseline="middle" transform="rotate(316.6 340.7 767.7)">saṃkhyā-</text><path d="M218.55 850.03 A448 448 0 0 1 189.20 811.41 L316.66 724.99 A294 294 0 0 0 335.92 750.33 Z" class="seg c-bahuvrihi ring3" data-id="bahuvrihi--bv-special--dig"/><text x="319.6" y="742.8" font-size="14.5" class="lbl lbl3" text-anchor="end" dominant-baseline="middle" transform="rotate(322.8 319.6 742.8)">dig-</text><path d="M189.20 811.41 A448 448 0 0 1 164.19 769.85 L300.25 697.71 A294 294 0 0 0 316.66 724.99 Z" class="seg c-bahuvrihi ring3" data-id="bahuvrihi--bv-special--adverbial"/><text x="301.2" y="715.7" font-size="14.5" class="lbl lbl3" text-anchor="end" dominant-baseline="middle" transform="rotate(329.0 301.2 715.7)">наречные</text><path d="M164.19 769.85 A448 448 0 0 1 143.82 725.82 L286.88 668.82 A294 294 0 0 0 300.25 697.71 Z" class="seg c-bahuvrihi ring3" data-id="bahuvrihi--bv-special--ahitagni"/><text x="285.9" y="686.8" font-size="14.5" class="lbl lbl3" text-anchor="end" dominant-baseline="middle" transform="rotate(335.2 285.9 686.8)">āhitāgnyādi</text><path d="M143.82 725.82 A448 448 0 0 1 128.33 679.85 L276.72 638.65 A294 294 0 0 0 286.88 668.82 Z" class="seg c-bahuvrihi ring3" data-id="bahuvrihi--bv-special--vibhakti-bv"/><text x="273.8" y="656.4" font-size="14.5" class="lbl lbl3" text-anchor="end" dominant-baseline="middle" transform="rotate(341.4 273.8 656.4)">vibhakti-</text><path d="M128.33 679.85 A448 448 0 0 1 117.90 632.48 L269.87 607.56 A294 294 0 0 0 276.72 638.65 Z" class="seg c-bahuvrihi ring3" data-id="bahuvrihi--bv-special--kim"/><text x="265.1" y="624.9" font-size="14.5" class="lbl lbl3" text-anchor="end" dominant-baseline="middle" transform="rotate(347.6 265.1 624.9)">kiṃ-</text><path d="M117.90 632.48 A448 448 0 0 1 112.66 584.25 L266.43 575.92 A294 294 0 0 0 269.87 607.56 Z" class="seg c-bahuvrihi ring3" data-id="bahuvrihi--bv-special--adi"/><text x="259.8" y="592.7" font-size="14.5" class="lbl lbl3" text-anchor="end" dominant-baseline="middle" transform="rotate(353.8 259.8 592.7)">X-ādi-</text><path d="M112.66 584.25 A448 448 0 0 1 112.66 535.75 L266.43 544.08 A294 294 0 0 0 266.43 575.92 Z" class="seg c-bahuvrihi ring3" data-id="bahuvrihi--bv-special--para"/><text x="258.0" y="560.0" font-size="14.5" class="lbl lbl3" text-anchor="end" dominant-baseline="middle" transform="rotate(360.0 258.0 560.0)">X-para-</text><path d="M112.66 535.75 A448 448 0 0 1 117.90 487.52 L269.87 512.44 A294 294 0 0 0 266.43 544.08 Z" class="seg c-bahuvrihi ring3" data-id="bahuvrihi--bv-special--matra"/><text x="259.8" y="527.3" font-size="14.5" class="lbl lbl3" text-anchor="end" dominant-baseline="middle" transform="rotate(366.2 259.8 527.3)">X-mātra-</text><path d="M376.45 529.91 A186 186 0 0 1 387.21 491.15 L465.24 522.25 A102 102 0 0 0 459.34 543.50 Z" class="seg c-dvandva ring1" data-id="dvandva"/><text x="455.9" y="531.1" font-size="19" class="lbl lbl1" text-anchor="end" dominant-baseline="middle" transform="rotate(375.5 455.9 531.1)">dvandva</text><path d="M275.79 513.41 A288 288 0 0 1 292.45 453.40 L381.64 488.93 A192 192 0 0 0 370.53 528.94 Z" class="seg c-dvandva ring2" data-id="dvandva--dv"/><text x="367.3" y="506.5" font-size="15" class="lbl lbl2r" text-anchor="end" dominant-baseline="middle" transform="rotate(375.5 367.3 506.5)">dvandva</text><path d="M117.90 487.52 A448 448 0 0 1 128.33 440.15 L276.72 481.35 A294 294 0 0 0 269.87 512.44 Z" class="seg c-dvandva ring3" data-id="dvandva--dv--itaretara"/><text x="265.1" y="495.1" font-size="14.5" class="lbl lbl3" text-anchor="end" dominant-baseline="middle" transform="rotate(372.4 265.1 495.1)">itaretara</text><path d="M128.33 440.15 A448 448 0 0 1 143.82 394.18 L286.88 451.18 A294 294 0 0 0 276.72 481.35 Z" class="seg c-dvandva ring3" data-id="dvandva--dv--samahara-dv"/><text x="273.8" y="463.6" font-size="14.5" class="lbl lbl3" text-anchor="end" dominant-baseline="middle" transform="rotate(378.6 273.8 463.6)">samāhāra</text><path d="M387.21 491.15 A186 186 0 0 1 560.00 374.00 L560.00 458.00 A102 102 0 0 0 465.24 522.25 Z" class="seg c-avyayibhava ring1" data-id="avyayibhava"/><text x="479.2" y="440.8" font-size="30" class="lbl lbl1" text-anchor="middle" dominant-baseline="middle" transform="rotate(325.9 479.2 440.8)">avyayībhāva</text><path d="M292.45 453.40 A288 288 0 0 1 560.00 272.00 L560.00 368.00 A192 192 0 0 0 381.64 488.93 Z" class="seg c-avyayibhava ring2" data-id="avyayibhava--av"/><text x="425.3" y="361.4" font-size="19" class="lbl lbl2" text-anchor="middle" dominant-baseline="middle" transform="rotate(325.9 425.3 361.4)">значения по Пан. 2.1.6</text><path d="M143.82 394.18 A448 448 0 0 1 164.19 350.15 L300.25 422.29 A294 294 0 0 0 286.88 451.18 Z" class="seg c-avyayibhava ring3" data-id="avyayibhava--av--vibhakti-av"/><text x="285.9" y="433.2" font-size="14.5" class="lbl lbl3" text-anchor="end" dominant-baseline="middle" transform="rotate(384.8 285.9 433.2)">vibhakti</text><path d="M164.19 350.15 A448 448 0 0 1 189.20 308.59 L316.66 395.01 A294 294 0 0 0 300.25 422.29 Z" class="seg c-avyayibhava ring3" data-id="avyayibhava--av--samipa"/><text x="301.2" y="404.3" font-size="14.5" class="lbl lbl3" text-anchor="end" dominant-baseline="middle" transform="rotate(391.0 301.2 404.3)">samīpa</text><path d="M189.20 308.59 A448 448 0 0 1 218.55 269.97 L335.92 369.67 A294 294 0 0 0 316.66 395.01 Z" class="seg c-avyayibhava ring3" data-id="avyayibhava--av--samrddhi"/><text x="319.6" y="377.2" font-size="14.5" class="lbl lbl3" text-anchor="end" dominant-baseline="middle" transform="rotate(397.2 319.6 377.2)">samṛddhi</text><path d="M218.55 269.97 A448 448 0 0 1 251.91 234.75 L357.82 346.56 A294 294 0 0 0 335.92 369.67 Z" class="seg c-avyayibhava ring3" data-id="avyayibhava--av--vyrddhi"/><text x="340.7" y="352.3" font-size="14.5" class="lbl lbl3" text-anchor="end" dominant-baseline="middle" transform="rotate(403.4 340.7 352.3)">vyṛddhi</text><path d="M251.91 234.75 A448 448 0 0 1 288.88 203.35 L382.08 325.95 A294 294 0 0 0 357.82 346.56 Z" class="seg c-avyayibhava ring3" data-id="avyayibhava--av--arthabhava"/><text x="364.5" y="329.8" font-size="14.5" class="lbl lbl3" text-anchor="end" dominant-baseline="middle" transform="rotate(409.7 364.5 329.8)">arthābhāva</text><path d="M288.88 203.35 A448 448 0 0 1 329.03 176.13 L408.43 308.08 A294 294 0 0 0 382.08 325.95 Z" class="seg c-avyayibhava ring3" data-id="avyayibhava--av--atyaya"/><text x="390.5" y="310.0" font-size="14.5" class="lbl lbl3" text-anchor="end" dominant-baseline="middle" transform="rotate(415.9 390.5 310.0)">atyaya</text><path d="M329.03 176.13 A448 448 0 0 1 371.89 153.41 L436.55 293.17 A294 294 0 0 0 408.43 308.08 Z" class="seg c-avyayibhava ring3" data-id="avyayibhava--av--asamprati"/><text x="418.5" y="293.2" font-size="14.5" class="lbl lbl3" text-anchor="end" dominant-baseline="middle" transform="rotate(422.1 418.5 293.2)">asamprati</text><path d="M371.89 153.41 A448 448 0 0 1 416.95 135.45 L466.13 281.39 A294 294 0 0 0 436.55 293.17 Z" class="seg c-avyayibhava ring3" data-id="avyayibhava--av--sabda"/><text x="448.2" y="279.4" font-size="14.5" class="lbl lbl3" text-anchor="end" dominant-baseline="middle" transform="rotate(428.3 448.2 279.4)">śabda-prādurbhāva</text><path d="M416.95 135.45 A448 448 0 0 1 463.69 122.47 L496.80 272.87 A294 294 0 0 0 466.13 281.39 Z" class="seg c-avyayibhava ring3" data-id="avyayibhava--av--pascat"/><text x="479.2" y="269.0" font-size="14.5" class="lbl lbl3" text-anchor="end" dominant-baseline="middle" transform="rotate(434.5 479.2 269.0)">paścāt</text><path d="M463.69 122.47 A448 448 0 0 1 511.56 114.63 L528.21 267.72 A294 294 0 0 0 496.80 272.87 Z" class="seg c-avyayibhava ring3" data-id="avyayibhava--av--yatha"/><text x="511.1" y="262.0" font-size="14.5" class="lbl lbl3" text-anchor="end" dominant-baseline="middle" transform="rotate(440.7 511.1 262.0)">yathā</text><path d="M511.56 114.63 A448 448 0 0 1 560.00 112.00 L560.00 266.00 A294 294 0 0 0 528.21 267.72 Z" class="seg c-avyayibhava ring3" data-id="avyayibhava--av--vipsa"/><text x="543.7" y="258.4" font-size="14.5" class="lbl lbl3" text-anchor="end" dominant-baseline="middle" transform="rotate(446.9 543.7 258.4)">vīpsā</text><circle cx="560" cy="560" r="96" class="hub"/><text x="560" y="550" font-size="34" class="lbl hublbl" text-anchor="middle">samāsa</text><text x="560" y="586" font-size="20" class="lbl hublbl2" text-anchor="middle">cakra</text></g></svg>