<svg viewBox="0 0 549 290" xmlns="http://www.w3.org/2000/svg" role="img" font-family="'Klammer Serif', 'Charis SIL', Charis, 'Gentium Plus', Georgia, serif">
<title>Klammerdiagramm — śākapārthivaḥ (madhyamapadalopin)</title>
<desc>Leitan's madhyamapadalopin example śākapārthivaḥ (śākapriyaḥ pārthivaḥ — the vegetable-loving king): the elided middle member is RESTORED in the word line as [priya] in editorial brackets — no bar, no arrows, no node index (MG vote D4, 16-07-2026). Node A joins the two real members. I/II часть spans omitted (notation demo).</desc>
<defs>
<pattern id="hatch" width="5.5" height="5.5" patternUnits="userSpaceOnUse" patternTransform="rotate(45)"><line x1="0" y1="0" x2="0" y2="5.5" stroke="currentColor" stroke-width="0.8"/></pattern>
</defs>
<text y="126" font-size="46" fill="currentColor">
<tspan x="44.0">śāka-</tspan>
<tspan x="307.4">pārthivaḥ</tspan>
<tspan x="148.4">[priya]-</tspan>
</text>
<rect x="48" y="162" width="82" height="84" fill="url(#hatch)"/>
<rect x="130" y="198" width="98" height="48" fill="url(#hatch)"/>
<path d="M48 146 L44 157 L52 157 Z" fill="currentColor"/>
<path d="M130 146 L125 157 L134 157 Z" fill="currentColor"/>
<line x1="48" y1="155" x2="48" y2="246" stroke="currentColor" stroke-width="1.3"/>
<line x1="130" y1="155" x2="130" y2="198" stroke="currentColor" stroke-width="1.3"/>
<line x1="130" y1="198" x2="228" y2="198" stroke="currentColor" stroke-width="1.3"/>
<line x1="48" y1="246" x2="228" y2="246" stroke="currentColor" stroke-width="1.3"/>
<line x1="228" y1="198" x2="228" y2="246" stroke="currentColor" stroke-width="1.3"/>
<rect x="360" y="162" width="92" height="36" fill="url(#hatch)"/>
<rect x="262" y="198" width="190" height="48" fill="url(#hatch)"/>
<path d="M360 146 L356 157 L365 157 Z" fill="currentColor"/>
<path d="M452 146 L448 157 L457 157 Z" fill="currentColor"/>
<line x1="360" y1="155" x2="360" y2="198" stroke="currentColor" stroke-width="1.3"/>
<line x1="452" y1="155" x2="452" y2="246" stroke="currentColor" stroke-width="1.3"/>
<line x1="262" y1="198" x2="360" y2="198" stroke="currentColor" stroke-width="1.3"/>
<line x1="262" y1="198" x2="262" y2="246" stroke="currentColor" stroke-width="1.3"/>
<line x1="262" y1="246" x2="452" y2="246" stroke="currentColor" stroke-width="1.3"/>
<text x="245" y="231" font-size="26" text-anchor="middle" fill="currentColor">A</text>
</svg>